# AST/ASF file generated using VICON BodyLanguage
# -----------------------------------------------
:version 1.10
:name VICON
:units
  mass 1.0
  length 0.45
  angle deg
:documentation
   .ast/.asf automatically generated from VICON data using
   VICON BodyBuilder and BodyLanguage model FoxedUp or BRILLIANT.MOD
:root
   order TX TY TZ RX RY RZ
   axis XYZ
   position 0 0 0  
   orientation 0 0 0 
:bonedata
  begin
     id 1 
     name lhipjoint
     direction 0.567149 -0.783011 0.255413 
     length 2.28399 
     axis 0 0 0  XYZ
  end
  begin
     id 2 
     name lfemur
     direction 0.34202 -0.939693 0  
     length 7.34031  
     axis 0 0 20  XYZ
    dof rx ry rz
    limits (-160.0 20.0)
           (-70.0 70.0)
           (-60.0 70.0)
  end
  begin
     id 3 
     name ltibia
     direction 0.34202 -0.939693 0   
     length 6.9833   
     axis 0 0 20   XYZ
    dof rx
    limits (-10.0 170.0)
  end
  begin
     id 4 
     name lfoot
     direction 0.136498 -0.375025 0.91691   
     length 2.33665   
     axis -90 7.62852e-016 20   XYZ
    dof rx rz
    limits (-45.0 90.0)
           (-70.0 20.0)
  end
  begin
     id 5 
     name ltoes
     direction 1.5367e-011 -4.21617e-011 1   
     length 1.15039   
     axis -90 7.62852e-016 20   XYZ
    dof rx
    limits (-90.0 20.0)
  end
  begin
     id 6 
     name rhipjoint
     direction -0.602854 -0.758518 0.247423   
     length 2.35775  
     axis 0 0 0  XYZ 
  end
  begin
     id 7 
     name rfemur
     direction -0.34202 -0.939693 0   
     length 7.43932   
     axis 0 0 -20   XYZ
    dof rx ry rz
    limits (-160.0 20.0)
           (-70.0 70.0)
           (-70.0 60.0)
  end
  begin
     id 8 
     name rtibia
     direction -0.34202 -0.939693 0   
     length 7.11893   
     axis 0 0 -20   XYZ
    dof rx
    limits (-10.0 170.0)
 end
 begin
     id 9 
     name rfoot
     direction -0.131771 -0.362037 0.922803   
     length 2.53019  
     axis -90 -7.62852e-016 -20   XYZ
    dof rx rz
    limits (-45.0 90.0)
           (-20.0 70.0)
  end
  begin
     id 10 
     name rtoes
     direction -1.53733e-011 -4.21932e-011 1   
     length 1.24596   
     axis -90 -7.62852e-016 -20   XYZ
    dof rx
    limits (-90.0 20.0)
  end
  begin
     id 11 
     name lowerback
     direction 0.0235427 0.999023 -0.0374125   
     length 2.21768   
     axis 0 0 0   XYZ
    dof rx ry rz
    limits (-20.0 45.0)
           (-30.0 30.0)
           (-30.0 30.0)
  end
  begin
     id 12 
     name upperback
     direction 0.0302156 0.996818 -0.073759   
     length 2.20352   
     axis 0 0 0   XYZ
    dof rx ry rz
    limits (-20.0 45.0)
           (-30.0 30.0)
           (-30.0 30.0)
  end
  begin
     id 13 
     name thorax
     direction 0.0187169 0.998235 -0.0563532   
     length 2.22103   
     axis 0 0 0   XYZ
    dof rx ry rz
    limits (-20.0 45.0)
           (-30.0 30.0)
           (-30.0 30.0)
  end
  begin
     id 14 
     name lowerneck
     direction -0.119528 0.987423 0.103481   
     length 1.72948   
     axis 0 0 0   XYZ
    dof rx ry rz
    limits (-20.0 45.0)
           (-30.0 30.0)
           (-30.0 30.0)
  end
  begin
     id 15 
     name upperneck
     direction 0.248049 0.963095 -0.104496   
     length 1.74979   
     axis 0 0 0   XYZ
    dof rx ry rz
    limits (-20.0 45.0)
           (-30.0 30.0)
           (-30.0 30.0)
  end
  begin
     id 16
     name head
     direction 0.0903589 0.994284 -0.056876  
     length 1.78268  
     axis 0 0 0   XYZ
    dof rx ry rz
    limits (-20.0 45.0)
           (-30.0 30.0)
           (-30.0 30.0)
  end
  begin
     id 17 
     name lclavicle
     direction 0.946008 0.242039 -0.215608  
     length 3.80783  
     axis 0 0 0   XYZ
    dof ry rz
    limits (-20.0 10.0)
           (0.0 20.0)
  end
  begin
     id 18 
     name lhumerus
     direction 1 -4.48991e-011 -2.25695e-027   
     length 4.83125   
     axis 180 -30 -90   XYZ
    dof rx ry rz
    limits (-60.0 90.0)
           (-90.0 90.0)
           (-90.0 90.0)
  end
  begin
     id 19
     name lradius
     direction 0.999991 0.00366712 -0.00211721   
     length 3.00391   
     axis 180 -30 -90   XYZ
    dof rx
    limits (-10.0 170.0)
  end
  begin
     id 20
     name lwrist
     direction 0.999991 0.00393016 -0.00141978   
     length 1.50195   
     axis -1.00488e-014 90 90   XYZ
    dof ry
    limits (-180.0 0.0)
 end
  begin
     id 21 
     name lhand
     direction 1 -4.49123e-011 2.72098e-026   
     length 1.2717   
     axis -1.73687e-014 90 90   XYZ
    dof rx rz
    limits (-90.0 90.0)
           (-45.0 45.0)
  end
  begin
     id 22 
     name lfingers
     direction 1 -4.48678e-011 5.4479e-026   
     length 1.02528   
     axis -3.47372e-014 90 90   XYZ
    dof rx
    limits (0.0 90.0)
  end
  begin
     id 23
     name lthumb
     direction 0.707107 -6.34851e-011 0.707107   
     length 1.4721   
     axis -90 45 -1.62303e-014   XYZ
    dof rx rz
    limits (-45.0 45.0)
           (-45.0 45.0)
  end
  begin
     id 24 
     name rclavicle
     direction -0.981723 0.189447 -0.0181673   
     length 3.74989  
     axis 0 0 0   XYZ 
    dof ry rz
    limits (-10.0 20.0)
           (-20.0 0.0)
  end
  begin
     id 25 
     name rhumerus
     direction -1 -4.48985e-011 2.38206e-027  
     length 4.61118   
     axis 180 30 90   XYZ
    dof rx ry rz
    limits (-90.0 60.0)
           (-90.0 90.0)
           (-90.0 90.0)
  end
  begin
     id 26 
     name rradius
     direction -1 -4.48977e-011 7.41019e-027   
     length 2.91491   
     axis 180 30 90   XYZ
    dof rx
    limits (-10.0 170.0)
  end
  begin
     id 27 
     name rwrist
     direction -1 -4.48549e-011 1.3624e-026   
     length 1.45745   
     axis -1.00488e-014 -90 -90   XYZ
    dof ry
    limits (-180.0 0.0)
  end
  begin
     id 28
     name rhand
     direction -1 -4.49107e-011 2.72109e-026   
     length 1.30769   
     axis -1.73687e-014 -90 -90   XYZ
    dof rx rz
    limits (-90.0 90.0)
           (-45.0 45.0)
  end
  begin
     id 29
     name rfingers
     direction -1 -4.48919e-011 5.44468e-026   
     length 1.05429   
     axis -3.47372e-014 -90 -90   XYZ
    dof rx
    limits (0.0 90.0)
  end
  begin
     id 30
     name rthumb
     direction -0.707107 -6.35315e-011 0.707107   
     length 1.51376   
     axis -90 -45 1.62303e-014   XYZ
    dof rx rz
    limits (-45.0 45.0)
           (-45.0 45.0)
  end
:hierarchy
  begin
    root lhipjoint rhipjoint lowerback
    lhipjoint lfemur
    lfemur ltibia
    ltibia lfoot
    lfoot ltoes
    rhipjoint rfemur
    rfemur rtibia
    rtibia rfoot
    rfoot rtoes
    lowerback upperback
    upperback thorax
    thorax lowerneck lclavicle rclavicle
    lowerneck upperneck
    upperneck head
    lclavicle lhumerus
    lhumerus lradius
    lradius lwrist
    lwrist lhand lthumb
    lhand lfingers
    rclavicle rhumerus
    rhumerus rradius
    rradius rwrist
    rwrist rhand rthumb
    rhand rfingers
  end

#!OML:ASF X:\für Bonn\!DataBase\2005_08_11_Bastian_Final\c3d\Bastian.ASF
:FULLY-SPECIFIED
:DEGREES
1
root -1.93945 17.0314 1.41372 165.346 -7.64691 -175.955
lowerback 6.00983 0.0836451 0.963643
upperback 5.5192 -0.27268 0.296758
thorax 2.31909 -0.291046 -0.23138
lowerneck -1.08705 -7.10353 -2.27025
upperneck -2.91929 -9.54149 7.35826
head -0.234919 -4.87492 2.65692
rclavicle 1.12251e-014 -1.03368e-014
rhumerus -22.1672 44.4536 -95.6802
rradius 54.2545
rwrist -16.2122
rhand -46.1517 9.2213
rfingers 7.12502
rthumb -18.8916 -19.8813
lclavicle 1.12251e-014 -1.03368e-014
lhumerus -24.05 -28.6294 94.9293
lradius 53.2457
lwrist -1.30865
lhand -46.7403 -4.22631
lfingers 7.12502
lthumb -19.4576 24.8201
rfemur -8.50824 -3.20113 23.0771
rtibia 54.6164
rfoot -12.0522 -8.59194
rtoes -9.96506
lfemur 5.21173 0.395948 -15.0363
ltibia 35.5312
lfoot -19.9292 -4.10348
ltoes -16.2304
2
root -1.98001 17.0448 1.45023 165.197 -7.80091 -175.975
lowerback 6.55322 -0.0542218 0.924412
upperback 5.54861 -0.471194 0.366598
thorax 2.04705 -0.402126 -0.125817
lowerneck -1.20174 -7.05579 -2.31751
upperneck -2.8427 -9.47925 7.36553
head -0.1917 -4.83961 2.66117
rclavicle 7.83879e-015 1.98785e-015
rhumerus -23.5225 43.4696 -96.7854
rradius 51.9402
rwrist -17.0804
rhand -46.6219 9.09994
rfingers 7.12502
rthumb -19.3438 -19.958
lclavicle 7.83879e-015 1.98785e-015
lhumerus -23.0727 -28.8376 94.7531
lradius 54.6926
lwrist -1.71995
lhand -47.2203 -4.32577
lfingers 7.12502
lthumb -19.919 24.6734
rfemur -9.63517 -3.54069 22.674
rtibia 56.2553
rfoot -10.3091 -8.10899
rtoes -11.0859
lfemur 5.28847 0.213178 -15.3201
ltibia 35.337
lfoot -19.6997 -3.95988
ltoes -15.6663
3
root -2.01982 17.0553 1.48768 165.02 -7.95257 -175.979
lowerback 7.13825 -0.192258 0.891579
upperback 5.57111 -0.670173 0.453184
thorax 1.74663 -0.513984 -0.00288129
lowerneck -1.24436 -7.00616 -2.40348
upperneck -2.82848 -9.41085 7.38077
head -0.178439 -4.80308 2.67993
rclavicle 6.43429e-016 -6.75868e-015
rhumerus -24.8005 42.4641 -97.7259
rradius 49.7043
rwrist -17.8758
rhand -47.0136 8.56019
rfingers 7.12502
rthumb -19.7203 -20.4595
lclavicle 6.43429e-016 -6.75868e-015
lhumerus -22.0111 -29.1006 94.5713
lradius 56.0191
lwrist -2.13072
lhand -47.745 -4.35424
lfingers 7.12502
lthumb -20.4233 24.5917
rfemur -10.7647 -3.90254 22.2791
rtibia 57.8654
rfoot -8.5115 -7.61936
rtoes -12.8281
lfemur 5.43805 0.0117866 -15.5841
ltibia 35.0414
lfoot -19.3907 -3.85582
ltoes -14.9343
4
root -2.05984 17.0699 1.52444 164.836 -8.11893 -175.981
lowerback 7.70824 -0.335302 0.853156
upperback 5.62696 -0.880979 0.539326
thorax 1.49103 -0.633481 0.126343
lowerneck -1.3683 -6.95135 -2.44527
upperneck -2.80431 -9.3369 7.37288
head -0.151885 -4.76294 2.67978
rclavicle -8.02515e-015 3.97569e-015
rhumerus -25.8467 41.4002 -98.4636
rradius 47.4641
rwrist -18.6104
rhand -47.2665 7.57458
rfingers 7.12502
rthumb -19.9635 -21.42
lclavicle -8.02515e-015 3.97569e-015
lhumerus -20.7911 -29.3678 94.2972
lradius 57.2793
lwrist -2.5417
lhand -48.1939 -4.32806
lfingers 7.12502
lthumb -20.8548 24.5711
rfemur -11.8597 -4.25534 21.8718
rtibia 59.398
rfoot -6.65647 -7.13681
rtoes -14.5403
lfemur 5.629 -0.185259 -15.8403
ltibia 34.6706
lfoot -19.0223 -3.77459
ltoes -14.0268
5
root -2.10076 17.0857 1.5608 164.633 -8.30122 -175.962
lowerback 8.28637 -0.485121 0.853111
upperback 5.68756 -1.10011 0.632873
thorax 1.23745 -0.756873 0.245826
lowerneck -1.46014 -6.89968 -2.52169
upperneck -2.80368 -9.26494 7.36802
head -0.136296 -4.72415 2.68877
rclavicle 2.43822e-016 -7.55382e-015
rhumerus -26.8315 40.2703 -99.086
rradius 45.3148
rwrist -19.2974
rhand -47.3632 6.25993
rfingers 7.12502
rthumb -20.0564 -22.7249
lclavicle 2.43822e-016 -7.55382e-015
lhumerus -19.5113 -29.6306 93.9947
lradius 58.5509
lwrist -2.86229
lhand -48.6159 -4.33581
lfingers 7.12502
lthumb -21.2601 24.5182
rfemur -12.8938 -4.55433 21.4922
rtibia 60.8388
rfoot -4.73148 -6.69617
rtoes -15.6694
lfemur 5.85231 -0.382433 -16.071
ltibia 34.2969
lfoot -18.6745 -3.74223
ltoes -13.246
6
root -2.14056 17.0989 1.59587 164.402 -8.46731 -175.936
lowerback 8.86 -0.630322 0.853892
upperback 5.77691 -1.31745 0.716856
thorax 1.01781 -0.880989 0.357966
lowerneck -1.5827 -6.84361 -2.54683
upperneck -2.81627 -9.18806 7.34568
head -0.123316 -4.68357 2.68232
rclavicle -1.18184e-014 -6.36111e-015
rhumerus -27.7394 39.2092 -99.6201
rradius 43.2801
rwrist -20.0427
rhand -47.3336 4.72799
rfingers 7.12502
rthumb -20.028 -24.2598
lclavicle -1.18184e-014 -6.36111e-015
lhumerus -18.1171 -29.8262 93.5883
lradius 59.8016
lwrist -3.1708
lhand -48.9505 -4.42218
lfingers 7.12502
lthumb -21.5815 24.3953
rfemur -13.8516 -4.75265 21.1557
rtibia 62.1839
rfoot -2.73171 -6.32767
rtoes -16.5344
lfemur 6.11075 -0.495086 -16.2542
ltibia 33.9343
lfoot -18.3184 -3.80551
ltoes -12.2628
7
root -2.18179 17.1096 1.6291 164.147 -8.6218 -175.916
lowerback 9.41688 -0.769999 0.861942
upperback 5.89879 -1.53254 0.809535
thorax 0.84306 -1.00614 0.477291
lowerneck -1.73435 -6.79397 -2.61423
upperneck -2.83951 -9.11905 7.35039
head -0.104906 -4.64671 2.69105
rclavicle 1.12251e-014 8.34896e-015
rhumerus -28.7214 38.4415 -100.098
rradius 41.5449
rwrist -21.0321
rhand -47.2956 3.11905
rfingers 7.12502
rthumb -19.9915 -25.8726
lclavicle 1.12251e-014 8.34896e-015
lhumerus -16.6297 -29.969 93.148
lradius 61.0422
lwrist -3.40633
lhand -49.2694 -4.55843
lfingers 7.12502
lthumb -21.8877 24.2235
rfemur -14.734 -4.81106 20.8474
rtibia 63.4519
rfoot -0.647071 -6.05462
rtoes -16.798
lfemur 6.39904 -0.586993 -16.4352
ltibia 33.6055
lfoot -17.994 -3.89072
ltoes -11.2825
8
root -2.22231 17.1155 1.66421 163.891 -8.75783 -175.898
lowerback 10.0105 -0.906513 0.875572
upperback 5.99996 -1.74122 0.902752
thorax 0.628416 -1.12787 0.59816
lowerneck -1.87173 -6.73629 -2.66317
upperneck -2.84966 -9.03811 7.30039
head -0.0891459 -4.60289 2.67929
rclavicle -1.13991e-014 -3.97569e-015
rhumerus -29.8265 37.8814 -100.595
rradius 40.0669
rwrist -22.3758
rhand -47.2985 1.79367
rfingers 7.12502
rthumb -19.9942 -27.1977
lclavicle -1.13991e-014 -3.97569e-015
lhumerus -15.1263 -30.0482 92.6784
lradius 62.3134
lwrist -3.64271
lhand -49.5655 -4.76654
lfingers 7.12502
lthumb -22.172 23.982
rfemur -15.6142 -4.70691 20.5829
rtibia 64.7074
rfoot 1.46829 -5.86042
rtoes -17.0345
lfemur 6.66269 -0.58149 -16.5744
ltibia 33.3376
lfoot -17.6895 -4.09453
ltoes -10.1551
9
root -2.26342 17.1194 1.69955 163.635 -8.8748 -175.882
lowerback 10.5833 -1.03611 0.885448
upperback 6.12434 -1.94541 1.00201
thorax 0.451437 -1.24934 0.729249
lowerneck -2.00824 -6.67926 -2.72569
upperneck -2.90481 -8.95771 7.28796
head -0.0851454 -4.56117 2.68348
rclavicle -2.1944e-014 1.13307e-014
rhumerus -30.9715 37.5698 -101.097
rradius 38.7621
rwrist -23.9065
rhand -47.3294 0.770112
rfingers 7.12502
rthumb -20.0239 -28.2181
lclavicle -2.1944e-014 1.13307e-014
lhumerus -13.5248 -30.0936 92.1377
lradius 63.643
lwrist -3.77839
lhand -49.8215 -5.04662
lfingers 7.12502
lthumb -22.4178 23.6725
rfemur -16.5035 -4.42434 20.3676
rtibia 65.9904
rfoot 3.62266 -5.74816
rtoes -17.4786
lfemur 6.91002 -0.533085 -16.7027
ltibia 33.1152
lfoot -17.4238 -4.31895
ltoes -9.28287
10
root -2.30551 17.1209 1.73302 163.346 -8.95474 -175.848
lowerback 11.1785 -1.16245 0.95009
upperback 6.24764 -2.14144 1.08928
thorax 0.261027 -1.36612 0.820413
lowerneck -2.17142 -6.62149 -2.78873
upperneck -2.8919 -8.87823 7.27762
head -0.0549917 -4.51795 2.68573
rclavicle 9.02917e-015 -1.19271e-015
rhumerus -32.1498 37.3432 -101.627
rradius 37.5267
rwrist -25.5009
rhand -47.3582 0.164584
rfingers 7.12502
rthumb -20.0516 -28.8207
lclavicle 9.02917e-015 -1.19271e-015
lhumerus -11.9469 -30.1386 91.5401
lradius 65.0445
lwrist -3.91519
lhand -50.1518 -5.37282
lfingers 7.12502
lthumb -22.7348 23.3077
rfemur -17.4141 -4.02093 20.2019
rtibia 67.3506
rfoot 5.77726 -5.61169
rtoes -18.2443
lfemur 7.19809 -0.424241 -16.789
ltibia 32.9042
lfoot -17.1628 -4.55264
ltoes -8.58729
11
root -2.34774 17.1228 1.76709 163.051 -9.00717 -175.8
lowerback 11.7732 -1.27884 1.04096
upperback 6.39063 -2.32577 1.17881
thorax 0.0922879 -1.47862 0.900593
lowerneck -2.33164 -6.56294 -2.79595
upperneck -2.95386 -8.79676 7.22483
head -0.0538391 -4.47606 2.66645
rclavicle 6.02255e-015 -1.19271e-015
rhumerus -33.3538 37.2651 -102.161
rradius 36.4383
rwrist -27.1916
rhand -47.4487 -0.218907
rfingers 7.12502
rthumb -20.1386 -29.1951
lclavicle 6.02255e-015 -1.19271e-015
lhumerus -10.3129 -30.1204 90.8896
lradius 66.4836
lwrist -4.12553
lhand -50.5209 -5.72315
lfingers 7.12502
lthumb -23.0889 22.9135
rfemur -18.4241 -3.50674 20.0875
rtibia 68.807
rfoot 7.89409 -5.38951
rtoes -19.111
lfemur 7.49972 -0.316891 -16.8533
ltibia 32.6717
lfoot -16.8812 -4.78777
ltoes -7.85391
